<svg xmlns="http://www.w3.org/2000/svg" xmlns:xlink="http://www.w3.org/1999/xlink" width="500" zoomAndPan="magnify" viewBox="0 0 375 374.999991" height="500" preserveAspectRatio="xMidYMid meet" version="1.0"><defs><g/><clipPath id="ad0654dfa6"><path d="M 56 37.5 L 319 37.5 L 319 215 L 56 215 Z M 56 37.5 " clip-rule="nonzero"/></clipPath><clipPath id="c7de06818c"><path d="M 32.292969 216 L 342.792969 216 L 342.792969 231.75 L 32.292969 231.75 Z M 32.292969 216 " clip-rule="nonzero"/></clipPath><clipPath id="66bbea1d37"><path d="M 70.492188 97.46875 L 175 97.46875 L 175 163.46875 L 70.492188 163.46875 Z M 70.492188 97.46875 " clip-rule="nonzero"/></clipPath><clipPath id="0c44c0fc59"><path d="M 260.152344 97.46875 L 329 97.46875 L 329 140.96875 L 260.152344 140.96875 Z M 260.152344 97.46875 " clip-rule="nonzero"/></clipPath></defs><rect x="-37.5" width="450" fill="#ffffff" y="-37.499999" height="449.999989" fill-opacity="1"/><rect x="-37.5" width="450" fill="#100f0d" y="-37.499999" height="449.999989" fill-opacity="1"/><g clip-path="url(#ad0654dfa6)"><path fill="#ffffff" d="M 188.46875 42.726562 C 190.46875 42.726562 192.089844 44.347656 192.089844 46.347656 C 192.089844 48.351562 190.46875 49.972656 188.46875 49.972656 C 186.46875 49.972656 184.84375 48.351562 184.84375 46.347656 C 184.84375 44.347656 186.46875 42.726562 188.46875 42.726562 Z M 303.511719 193.953125 L 303.511719 195.316406 C 303.511719 197.097656 302.0625 198.550781 300.28125 198.550781 L 74.710938 198.550781 C 72.925781 198.550781 71.476562 197.097656 71.476562 195.316406 L 71.476562 56.191406 C 71.476562 54.410156 72.925781 52.960938 74.710938 52.960938 L 300.28125 52.960938 C 302.0625 52.960938 303.511719 54.410156 303.511719 56.191406 L 303.511719 78.292969 L 318.980469 78.292969 L 318.980469 56.191406 C 318.980469 45.863281 310.605469 37.492188 300.28125 37.492188 L 74.710938 37.492188 C 64.382812 37.492188 56.011719 45.863281 56.011719 56.191406 L 56.011719 195.316406 C 56.011719 205.644531 64.382812 214.015625 74.710938 214.015625 L 300.28125 214.015625 C 310.207031 214.015625 318.320312 206.28125 318.9375 196.515625 C 317.292969 197.039062 315.539062 197.324219 313.722656 197.324219 C 309.902344 197.324219 306.371094 196.070312 303.511719 193.953125 " fill-opacity="1" fill-rule="nonzero"/></g><g clip-path="url(#c7de06818c)"><path fill="#ffffff" d="M 236.355469 217.515625 C 236.355469 220.792969 233.699219 223.449219 230.421875 223.449219 L 144.570312 223.449219 C 141.292969 223.449219 138.632812 220.792969 138.632812 217.515625 L 138.632812 216.78125 L 32.574219 216.78125 C 32.574219 224.917969 39.171875 231.511719 47.304688 231.511719 L 327.6875 231.511719 C 335.820312 231.511719 342.414062 224.917969 342.414062 216.78125 L 236.355469 216.78125 L 236.355469 217.515625 " fill-opacity="1" fill-rule="nonzero"/></g><path fill="#ffffff" d="M 324.53125 144.960938 L 261.9375 144.960938 L 252.429688 95.308594 L 334.039062 95.308594 Z M 338.296875 88.273438 L 251.046875 88.273438 L 248.964844 77.449219 C 247.515625 69.898438 240.882812 64.421875 233.199219 64.421875 L 206.804688 64.421875 C 204.859375 64.421875 203.285156 65.996094 203.285156 67.9375 C 203.285156 69.878906 204.859375 71.457031 206.804688 71.457031 L 233.199219 71.457031 C 237.515625 71.457031 241.242188 74.53125 242.054688 78.773438 L 254.984375 146.058594 C 250.636719 148.011719 247.601562 152.378906 247.601562 157.449219 C 247.601562 164.332031 253.203125 169.933594 260.089844 169.933594 L 327.441406 169.933594 C 329.382812 169.933594 330.957031 168.359375 330.957031 166.417969 C 330.957031 164.472656 329.382812 162.898438 327.441406 162.898438 L 260.089844 162.898438 C 257.082031 162.898438 254.636719 160.453125 254.636719 157.449219 C 254.636719 154.441406 257.082031 151.996094 260.089844 151.996094 L 327.441406 151.996094 C 327.554688 151.996094 327.664062 151.988281 327.777344 151.976562 L 327.898438 151.960938 C 327.964844 151.953125 328.035156 151.945312 328.101562 151.929688 C 328.148438 151.921875 328.199219 151.910156 328.246094 151.898438 C 328.304688 151.886719 328.363281 151.871094 328.421875 151.855469 C 328.46875 151.839844 328.519531 151.824219 328.566406 151.808594 C 328.621094 151.789062 328.675781 151.769531 328.726562 151.75 C 328.773438 151.730469 328.824219 151.710938 328.867188 151.691406 C 328.921875 151.667969 328.972656 151.640625 329.023438 151.617188 L 329.15625 151.546875 C 329.210938 151.515625 329.261719 151.484375 329.316406 151.449219 L 329.425781 151.382812 C 329.5 151.332031 329.566406 151.277344 329.636719 151.222656 L 329.679688 151.191406 C 329.761719 151.125 329.839844 151.050781 329.914062 150.976562 L 329.980469 150.90625 C 330.03125 150.851562 330.085938 150.796875 330.132812 150.742188 L 330.207031 150.648438 C 330.246094 150.59375 330.289062 150.539062 330.324219 150.488281 L 330.398438 150.375 C 330.433594 150.324219 330.464844 150.269531 330.496094 150.214844 L 330.566406 150.089844 C 330.589844 150.039062 330.617188 149.984375 330.640625 149.933594 C 330.660156 149.886719 330.683594 149.835938 330.703125 149.789062 C 330.722656 149.738281 330.742188 149.6875 330.757812 149.636719 C 330.777344 149.582031 330.792969 149.53125 330.808594 149.480469 C 330.824219 149.425781 330.839844 149.375 330.851562 149.320312 C 330.867188 149.265625 330.878906 149.214844 330.890625 149.15625 L 330.894531 149.140625 L 341.75 92.453125 C 341.945312 91.425781 341.671875 90.359375 341.003906 89.550781 C 340.335938 88.742188 339.34375 88.273438 338.296875 88.273438 " fill-opacity="1" fill-rule="nonzero"/><path fill="#ffffff" d="M 270.464844 172.921875 C 266.480469 172.921875 263.253906 176.152344 263.253906 180.132812 C 263.253906 184.113281 266.480469 187.34375 270.464844 187.34375 C 274.445312 187.34375 277.671875 184.113281 277.671875 180.132812 C 277.671875 176.152344 274.445312 172.921875 270.464844 172.921875 " fill-opacity="1" fill-rule="nonzero"/><path fill="#ffffff" d="M 313.722656 172.921875 C 309.742188 172.921875 306.511719 176.152344 306.511719 180.132812 C 306.511719 184.113281 309.742188 187.34375 313.722656 187.34375 C 317.703125 187.34375 320.933594 184.113281 320.933594 180.132812 C 320.933594 176.152344 317.703125 172.921875 313.722656 172.921875 " fill-opacity="1" fill-rule="nonzero"/><path fill="#ffffff" d="M 184.117188 94.84375 L 228.785156 94.84375 C 230.726562 94.84375 232.300781 93.269531 232.300781 91.328125 C 232.300781 89.382812 230.726562 87.808594 228.785156 87.808594 L 184.117188 87.808594 C 182.175781 87.808594 180.601562 89.382812 180.601562 91.328125 C 180.601562 93.269531 182.175781 94.84375 184.117188 94.84375 " fill-opacity="1" fill-rule="nonzero"/><path fill="#ffffff" d="M 178.839844 111.726562 L 230.542969 111.726562 C 232.488281 111.726562 234.0625 110.152344 234.0625 108.207031 C 234.0625 106.265625 232.488281 104.691406 230.542969 104.691406 L 178.839844 104.691406 C 176.898438 104.691406 175.324219 106.265625 175.324219 108.207031 C 175.324219 110.152344 176.898438 111.726562 178.839844 111.726562 " fill-opacity="1" fill-rule="nonzero"/><path fill="#ffffff" d="M 235.820312 125.089844 C 235.820312 123.148438 234.246094 121.574219 232.300781 121.574219 L 173.566406 121.574219 C 171.621094 121.574219 170.046875 123.148438 170.046875 125.089844 C 170.046875 127.03125 171.621094 128.605469 173.566406 128.605469 L 232.300781 128.605469 C 234.246094 128.605469 235.820312 127.03125 235.820312 125.089844 " fill-opacity="1" fill-rule="nonzero"/><path fill="#ffffff" d="M 237.578125 141.972656 C 237.578125 140.03125 236.003906 138.457031 234.0625 138.457031 L 191.152344 138.457031 C 189.210938 138.457031 187.632812 140.03125 187.632812 141.972656 C 187.632812 143.914062 189.210938 145.488281 191.152344 145.488281 L 234.0625 145.488281 C 236.003906 145.488281 237.578125 143.914062 237.578125 141.972656 " fill-opacity="1" fill-rule="nonzero"/><path fill="#ffffff" d="M 235.820312 155.339844 L 206.980469 155.339844 C 205.035156 155.339844 203.460938 156.914062 203.460938 158.855469 C 203.460938 160.796875 205.035156 162.371094 206.980469 162.371094 L 235.820312 162.371094 C 237.761719 162.371094 239.335938 160.796875 239.335938 158.855469 C 239.335938 156.914062 237.761719 155.339844 235.820312 155.339844 " fill-opacity="1" fill-rule="nonzero"/><g clip-path="url(#66bbea1d37)"><path fill="#f0b520" d="M 132.761719 115.53125 C 132.28125 114.523438 131.75 113.542969 131.167969 112.589844 L 138.324219 112.589844 L 142.304688 101.902344 C 142.410156 101.613281 142.589844 101.382812 142.839844 101.207031 C 143.089844 101.035156 143.371094 100.945312 143.675781 100.945312 L 155.175781 100.945312 C 155.289062 100.601562 155.441406 100.277344 155.636719 99.96875 C 155.828125 99.660156 156.050781 99.382812 156.3125 99.125 C 156.570312 98.871094 156.851562 98.652344 157.164062 98.464844 C 157.472656 98.277344 157.800781 98.128906 158.144531 98.019531 C 158.492188 97.910156 158.84375 97.84375 159.207031 97.816406 C 159.566406 97.789062 159.925781 97.804688 160.285156 97.863281 C 160.640625 97.921875 160.988281 98.023438 161.320312 98.160156 C 161.65625 98.300781 161.96875 98.480469 162.261719 98.691406 C 162.554688 98.90625 162.816406 99.152344 163.050781 99.425781 C 163.285156 99.703125 163.484375 100.003906 163.648438 100.324219 C 163.8125 100.648438 163.9375 100.988281 164.023438 101.339844 C 164.105469 101.691406 164.148438 102.046875 164.148438 102.410156 C 164.148438 102.773438 164.105469 103.128906 164.023438 103.480469 C 163.9375 103.835938 163.8125 104.171875 163.648438 104.496094 C 163.484375 104.820312 163.285156 105.117188 163.050781 105.394531 C 162.816406 105.667969 162.554688 105.914062 162.261719 106.128906 C 161.96875 106.34375 161.65625 106.519531 161.320312 106.660156 C 160.988281 106.800781 160.640625 106.898438 160.285156 106.957031 C 159.925781 107.015625 159.566406 107.03125 159.207031 107.003906 C 158.84375 106.980469 158.492188 106.910156 158.144531 106.800781 C 157.800781 106.691406 157.472656 106.542969 157.164062 106.355469 C 156.851562 106.167969 156.570312 105.949219 156.3125 105.695312 C 156.050781 105.441406 155.828125 105.160156 155.636719 104.851562 C 155.441406 104.546875 155.289062 104.21875 155.175781 103.875 L 144.6875 103.875 L 140.75 114.445312 C 140.664062 114.765625 140.488281 115.027344 140.226562 115.226562 C 139.960938 115.429688 139.664062 115.527344 139.335938 115.527344 Z M 155.761719 119.335938 C 155.28125 119.335938 154.808594 119.410156 154.351562 119.558594 C 153.890625 119.707031 153.46875 119.921875 153.074219 120.203125 C 152.683594 120.484375 152.34375 120.816406 152.058594 121.203125 C 151.773438 121.59375 151.550781 122.015625 151.398438 122.472656 L 135.230469 122.472656 C 135.457031 123.433594 135.644531 124.414062 135.789062 125.410156 L 151.394531 125.410156 C 151.578125 125.949219 151.847656 126.4375 152.210938 126.875 C 152.570312 127.3125 153 127.671875 153.492188 127.953125 C 153.988281 128.234375 154.515625 128.414062 155.078125 128.5 C 155.636719 128.585938 156.195312 128.566406 156.75 128.445312 C 157.304688 128.324219 157.820312 128.105469 158.296875 127.792969 C 158.769531 127.480469 159.171875 127.09375 159.503906 126.632812 C 159.835938 126.171875 160.074219 125.667969 160.21875 125.117188 C 160.363281 124.570312 160.40625 124.011719 160.34375 123.445312 C 160.285156 122.882812 160.121094 122.347656 159.863281 121.839844 C 159.605469 121.335938 159.261719 120.894531 158.839844 120.515625 C 158.417969 120.136719 157.941406 119.84375 157.410156 119.640625 C 156.878906 119.4375 156.332031 119.335938 155.761719 119.335938 Z M 170.375 132.265625 C 169.894531 132.265625 169.421875 132.339844 168.964844 132.488281 C 168.503906 132.636719 168.078125 132.851562 167.6875 133.132812 C 167.296875 133.417969 166.957031 133.75 166.671875 134.140625 C 166.382812 134.527344 166.164062 134.949219 166.011719 135.40625 L 135.789062 135.40625 C 135.644531 136.402344 135.457031 137.382812 135.230469 138.347656 L 166.011719 138.347656 C 166.191406 138.886719 166.464844 139.371094 166.824219 139.8125 C 167.1875 140.25 167.617188 140.609375 168.109375 140.886719 C 168.605469 141.167969 169.132812 141.347656 169.695312 141.433594 C 170.253906 141.515625 170.8125 141.5 171.367188 141.375 C 171.921875 141.253906 172.4375 141.035156 172.914062 140.726562 C 173.386719 140.414062 173.789062 140.023438 174.121094 139.5625 C 174.453125 139.101562 174.691406 138.597656 174.835938 138.046875 C 174.980469 137.5 175.019531 136.941406 174.960938 136.378906 C 174.898438 135.8125 174.738281 135.277344 174.476562 134.773438 C 174.21875 134.265625 173.878906 133.824219 173.453125 133.445312 C 173.03125 133.066406 172.554688 132.773438 172.023438 132.570312 C 171.492188 132.367188 170.945312 132.269531 170.375 132.269531 Z M 159.546875 153.796875 C 159.0625 153.796875 158.589844 153.871094 158.132812 154.019531 C 157.671875 154.167969 157.246094 154.382812 156.855469 154.664062 C 156.460938 154.945312 156.121094 155.28125 155.835938 155.671875 C 155.546875 156.058594 155.328125 156.480469 155.171875 156.9375 L 144.6875 156.9375 L 140.75 146.371094 C 140.664062 146.050781 140.488281 145.792969 140.222656 145.59375 C 139.960938 145.390625 139.664062 145.292969 139.335938 145.292969 L 132.761719 145.292969 C 132.28125 146.296875 131.746094 147.28125 131.167969 148.230469 L 138.324219 148.230469 L 142.304688 158.921875 C 142.410156 159.207031 142.589844 159.4375 142.84375 159.613281 C 143.09375 159.785156 143.371094 159.871094 143.679688 159.871094 L 143.679688 159.878906 L 155.175781 159.878906 C 155.355469 160.417969 155.628906 160.902344 155.988281 161.34375 C 156.351562 161.78125 156.777344 162.136719 157.273438 162.417969 C 157.769531 162.699219 158.296875 162.878906 158.855469 162.964844 C 159.417969 163.050781 159.976562 163.03125 160.53125 162.910156 C 161.085938 162.785156 161.601562 162.570312 162.074219 162.257812 C 162.550781 161.945312 162.953125 161.558594 163.285156 161.097656 C 163.617188 160.636719 163.851562 160.132812 164 159.582031 C 164.144531 159.035156 164.183594 158.476562 164.125 157.914062 C 164.0625 157.347656 163.902344 156.8125 163.644531 156.308594 C 163.386719 155.800781 163.046875 155.359375 162.621094 154.980469 C 162.199219 154.601562 161.722656 154.308594 161.195312 154.105469 C 160.664062 153.902344 160.113281 153.800781 159.546875 153.800781 Z M 133.214844 130.410156 C 133.214844 147.683594 119.128906 161.769531 101.851562 161.769531 C 84.578125 161.769531 70.492188 147.683594 70.492188 130.410156 C 70.492188 113.136719 84.578125 99.046875 101.851562 99.046875 C 119.128906 99.046875 133.214844 113.136719 133.214844 130.410156 Z M 127.34375 130.410156 C 127.34375 116.367188 115.894531 104.917969 101.851562 104.917969 C 87.8125 104.917969 76.363281 116.367188 76.363281 130.410156 C 76.363281 144.449219 87.8125 155.898438 101.851562 155.898438 C 115.894531 155.898438 127.34375 144.449219 127.34375 130.410156 Z M 101.851562 127.515625 C 101.417969 127.515625 100.996094 127.4375 100.589844 127.28125 C 100.1875 127.128906 99.820312 126.90625 99.496094 126.617188 C 99.175781 126.328125 98.914062 125.992188 98.714844 125.605469 C 98.515625 125.222656 98.390625 124.8125 98.339844 124.382812 C 98.292969 123.949219 98.320312 123.523438 98.429688 123.105469 C 98.535156 122.683594 98.714844 122.296875 98.964844 121.941406 C 99.214844 121.589844 99.519531 121.289062 99.878906 121.046875 C 100.238281 120.804688 100.632812 120.636719 101.054688 120.539062 C 101.476562 120.441406 101.902344 120.421875 102.332031 120.480469 C 102.761719 120.539062 103.167969 120.671875 103.546875 120.882812 C 103.929688 121.089844 104.257812 121.359375 104.539062 121.691406 C 104.824219 122.019531 105.035156 122.390625 105.179688 122.796875 C 105.308594 123.160156 105.503906 123.480469 105.761719 123.765625 C 106.019531 124.050781 106.320312 124.277344 106.667969 124.441406 C 107.011719 124.605469 107.378906 124.695312 107.761719 124.714844 C 108.144531 124.734375 108.515625 124.679688 108.878906 124.550781 C 109.238281 124.421875 109.5625 124.226562 109.847656 123.96875 C 110.132812 123.714844 110.355469 123.410156 110.519531 123.066406 C 110.683594 122.71875 110.777344 122.351562 110.792969 121.96875 C 110.8125 121.585938 110.757812 121.214844 110.628906 120.851562 C 109.964844 118.996094 108.828125 117.5 107.214844 116.363281 C 106.453125 115.828125 105.628906 115.417969 104.746094 115.125 L 104.746094 112.703125 C 104.742188 112.324219 104.667969 111.957031 104.519531 111.605469 C 104.371094 111.253906 104.160156 110.941406 103.890625 110.675781 C 103.621094 110.40625 103.308594 110.199219 102.953125 110.054688 C 102.601562 109.90625 102.234375 109.835938 101.851562 109.835938 C 101.472656 109.835938 101.105469 109.90625 100.75 110.054688 C 100.398438 110.199219 100.085938 110.40625 99.816406 110.675781 C 99.542969 110.941406 99.335938 111.253906 99.1875 111.605469 C 99.039062 111.957031 98.960938 112.324219 98.960938 112.703125 L 98.960938 115.125 C 98.4375 115.296875 97.933594 115.511719 97.449219 115.773438 C 96.964844 116.03125 96.507812 116.332031 96.074219 116.671875 C 95.644531 117.015625 95.246094 117.390625 94.882812 117.800781 C 94.515625 118.214844 94.191406 118.652344 93.902344 119.125 C 93.617188 119.59375 93.375 120.082031 93.175781 120.597656 C 92.972656 121.109375 92.820312 121.632812 92.714844 122.171875 C 92.605469 122.710938 92.546875 123.257812 92.539062 123.808594 C 92.527344 124.355469 92.566406 124.902344 92.652344 125.445312 C 92.738281 125.988281 92.871094 126.519531 93.050781 127.039062 C 93.234375 127.558594 93.457031 128.058594 93.726562 128.539062 C 93.996094 129.019531 94.304688 129.472656 94.652344 129.894531 C 95 130.320312 95.386719 130.710938 95.804688 131.070312 C 96.222656 131.425781 96.667969 131.742188 97.140625 132.023438 C 97.617188 132.300781 98.113281 132.535156 98.628906 132.726562 C 99.144531 132.914062 99.671875 133.058594 100.214844 133.15625 C 100.753906 133.253906 101.300781 133.300781 101.851562 133.300781 C 102.285156 133.300781 102.703125 133.378906 103.109375 133.535156 C 103.511719 133.6875 103.878906 133.910156 104.199219 134.199219 C 104.523438 134.484375 104.785156 134.824219 104.984375 135.207031 C 105.1875 135.59375 105.308594 136 105.359375 136.429688 C 105.410156 136.859375 105.382812 137.285156 105.273438 137.707031 C 105.167969 138.125 104.988281 138.511719 104.738281 138.867188 C 104.488281 139.222656 104.183594 139.519531 103.824219 139.761719 C 103.464844 140.003906 103.074219 140.175781 102.652344 140.273438 C 102.230469 140.371094 101.804688 140.394531 101.375 140.335938 C 100.945312 140.277344 100.542969 140.144531 100.160156 139.9375 C 99.78125 139.730469 99.449219 139.460938 99.167969 139.132812 C 98.886719 138.800781 98.671875 138.433594 98.523438 138.023438 C 98.394531 137.664062 98.203125 137.339844 97.945312 137.054688 C 97.6875 136.769531 97.386719 136.546875 97.039062 136.382812 C 96.691406 136.214844 96.328125 136.125 95.945312 136.105469 C 95.5625 136.085938 95.1875 136.140625 94.828125 136.269531 C 94.464844 136.398438 94.140625 136.59375 93.859375 136.851562 C 93.574219 137.109375 93.347656 137.410156 93.183594 137.757812 C 93.019531 138.105469 92.929688 138.46875 92.910156 138.851562 C 92.890625 139.234375 92.945312 139.609375 93.074219 139.96875 C 93.5625 141.328125 94.320312 142.507812 95.355469 143.511719 C 96.386719 144.515625 97.589844 145.242188 98.957031 145.691406 L 98.957031 148.113281 C 98.960938 148.496094 99.039062 148.859375 99.1875 149.210938 C 99.332031 149.5625 99.542969 149.875 99.816406 150.144531 C 100.085938 150.410156 100.398438 150.617188 100.75 150.765625 C 101.101562 150.910156 101.46875 150.980469 101.851562 150.980469 C 102.234375 150.980469 102.601562 150.910156 102.953125 150.765625 C 103.308594 150.617188 103.617188 150.410156 103.890625 150.144531 C 104.160156 149.875 104.371094 149.5625 104.519531 149.210938 C 104.667969 148.859375 104.742188 148.496094 104.746094 148.113281 L 104.746094 145.691406 C 105.269531 145.519531 105.773438 145.304688 106.257812 145.046875 C 106.742188 144.785156 107.199219 144.484375 107.632812 144.144531 C 108.0625 143.800781 108.460938 143.425781 108.824219 143.015625 C 109.191406 142.601562 109.515625 142.160156 109.800781 141.691406 C 110.089844 141.222656 110.332031 140.730469 110.53125 140.21875 C 110.730469 139.707031 110.886719 139.179688 110.992188 138.640625 C 111.097656 138.101562 111.15625 137.558594 111.167969 137.007812 C 111.175781 136.457031 111.140625 135.910156 111.050781 135.367188 C 110.964844 134.824219 110.832031 134.292969 110.652344 133.773438 C 110.472656 133.253906 110.246094 132.753906 109.976562 132.273438 C 109.707031 131.796875 109.398438 131.34375 109.050781 130.917969 C 108.699219 130.492188 108.316406 130.101562 107.898438 129.746094 C 107.480469 129.386719 107.035156 129.070312 106.558594 128.792969 C 106.085938 128.515625 105.589844 128.28125 105.074219 128.089844 C 104.558594 127.898438 104.027344 127.757812 103.488281 127.660156 C 102.945312 127.5625 102.398438 127.515625 101.847656 127.515625 Z M 101.851562 127.515625 " fill-opacity="1" fill-rule="evenodd"/></g><g clip-path="url(#0c44c0fc59)"><path fill="#f0b520" d="M 302.910156 141.144531 C 303.019531 141.101562 305.050781 139.84375 311.242188 135.996094 C 312.019531 135.511719 313.363281 134.671875 314.230469 134.128906 C 315.902344 133.078125 321.042969 129.878906 325.835938 126.90625 C 327.433594 125.914062 328.785156 125.042969 328.84375 124.972656 C 329.003906 124.765625 328.96875 124.625 328.675781 124.332031 C 328.433594 124.09375 328.332031 124.054688 327.785156 124 C 326.71875 123.894531 326.835938 124.222656 326.71875 121.042969 C 326.664062 119.523438 326.597656 118.160156 326.578125 118.015625 C 326.539062 117.761719 326.5625 117.734375 327.117188 117.410156 C 327.539062 117.164062 327.714844 117.007812 327.753906 116.851562 C 327.867188 116.402344 327.523438 116.253906 323.597656 115.085938 C 319.652344 113.910156 315.152344 112.515625 315.082031 112.449219 C 315.042969 112.410156 315.550781 111.636719 316.246094 110.679688 C 316.925781 109.746094 317.515625 108.910156 317.5625 108.820312 C 317.898438 108.160156 317.984375 105.808594 317.722656 104.355469 C 317.472656 102.964844 316.890625 101.636719 316.28125 101.050781 L 316.042969 100.824219 L 312.605469 100.492188 C 310.71875 100.308594 308.183594 100.066406 306.972656 99.953125 C 305.765625 99.839844 304.050781 99.671875 303.160156 99.578125 C 302.269531 99.488281 300.742188 99.335938 299.761719 99.246094 C 296.21875 98.910156 293.714844 98.671875 292.007812 98.503906 C 291.050781 98.414062 289.484375 98.261719 288.523438 98.171875 C 285.886719 97.921875 283.578125 97.695312 282.472656 97.578125 C 281.925781 97.519531 281.34375 97.472656 281.179688 97.46875 C 280.90625 97.464844 280.601562 97.695312 277.78125 100.035156 C 276.074219 101.449219 274.289062 102.925781 273.808594 103.316406 C 270.414062 106.066406 266.003906 109.808594 265.886719 110.03125 C 265.734375 110.328125 265.78125 110.691406 265.996094 110.878906 C 266.273438 111.117188 266.527344 111.199219 267.324219 111.296875 L 268.128906 111.398438 L 268.199219 112.214844 C 268.238281 112.664062 268.238281 113.058594 268.199219 113.097656 C 268.160156 113.132812 266.796875 113.609375 265.167969 114.15625 C 262.261719 115.132812 262.195312 115.160156 261.722656 115.574219 C 261.148438 116.070312 260.621094 116.988281 260.402344 117.867188 C 260.191406 118.714844 260.1875 121.886719 260.398438 122.867188 C 260.589844 123.753906 260.800781 124.308594 261.140625 124.828125 L 261.414062 125.242188 L 264.148438 126.285156 C 270.441406 128.679688 274.28125 130.140625 279.40625 132.085938 C 280.226562 132.394531 281.644531 132.9375 282.554688 133.285156 C 283.46875 133.632812 285.351562 134.347656 286.742188 134.875 C 288.132812 135.402344 290.128906 136.167969 291.179688 136.578125 C 292.226562 136.992188 293.699219 137.5625 294.453125 137.84375 C 295.207031 138.128906 296.976562 138.796875 298.390625 139.332031 C 299.804688 139.867188 301.167969 140.425781 301.417969 140.578125 C 302.378906 141.15625 302.628906 141.25 302.910156 141.144531 Z M 300.339844 139.125 C 300 138.992188 299.101562 138.644531 298.351562 138.359375 L 296.984375 137.832031 L 296.925781 137.507812 C 296.8125 136.871094 296.851562 132.667969 296.980469 131.835938 C 297.152344 130.707031 297.574219 129.511719 297.800781 129.511719 C 297.855469 129.511719 298.277344 129.660156 298.730469 129.835938 C 299.183594 130.015625 300.203125 130.402344 300.992188 130.703125 C 301.785156 131.003906 302.453125 131.265625 302.476562 131.289062 C 302.5 131.3125 302.382812 131.734375 302.21875 132.230469 C 301.453125 134.53125 301.171875 136.4375 301.332031 138.175781 C 301.382812 138.714844 301.441406 139.1875 301.46875 139.226562 C 301.492188 139.265625 301.484375 139.335938 301.457031 139.386719 C 301.386719 139.496094 301.15625 139.441406 300.339844 139.125 Z M 302.269531 138.984375 C 302.234375 138.859375 302.207031 137.992188 302.210938 137.058594 C 302.21875 135.511719 302.238281 135.28125 302.4375 134.484375 C 302.761719 133.1875 303.191406 131.925781 303.460938 131.492188 C 303.714844 131.078125 303.539062 131.191406 308.632812 128.230469 C 309.429688 127.765625 310.230469 127.289062 310.414062 127.171875 C 310.597656 127.054688 312.855469 125.726562 315.429688 124.226562 C 318.007812 122.722656 321.339844 120.78125 322.832031 119.90625 C 324.328125 119.035156 325.605469 118.320312 325.671875 118.320312 C 325.769531 118.320312 325.796875 118.449219 325.792969 118.960938 C 325.792969 119.316406 325.835938 120.71875 325.890625 122.085938 L 325.992188 124.5625 L 325.789062 124.726562 C 325.679688 124.816406 323.964844 125.898438 321.980469 127.128906 C 319.996094 128.359375 317.347656 130.003906 316.09375 130.78125 C 314.839844 131.5625 312.714844 132.875 311.367188 133.703125 C 308.351562 135.558594 305.140625 137.554688 303.65625 138.496094 C 303.042969 138.886719 302.492188 139.207031 302.4375 139.210938 C 302.378906 139.210938 302.304688 139.113281 302.269531 138.984375 Z M 308.671875 132.179688 C 311.988281 130.496094 314.316406 129.230469 315.835938 128.292969 C 317.445312 127.296875 319.773438 125.703125 319.710938 125.640625 C 319.671875 125.601562 319.105469 125.933594 316.757812 127.371094 C 314.738281 128.605469 313.699219 129.1875 310.125 131.089844 C 307.488281 132.496094 305.519531 133.59375 305.359375 133.746094 C 305.15625 133.949219 305.660156 133.710938 308.671875 132.179688 Z M 309.585938 133.480469 C 310.644531 132.929688 313.300781 131.230469 313.527344 130.960938 C 313.746094 130.695312 313.386719 130.859375 312.207031 131.554688 C 310.847656 132.359375 309.167969 133.449219 309.089844 133.574219 C 309.007812 133.707031 309.226562 133.664062 309.585938 133.480469 Z M 317.792969 125.0625 C 317.929688 124.988281 318.675781 124.546875 319.453125 124.082031 C 320.226562 123.613281 321.347656 123 321.941406 122.714844 C 322.53125 122.429688 322.976562 122.183594 322.925781 122.164062 C 322.78125 122.109375 321.417969 122.617188 320.628906 123.023438 C 319.480469 123.613281 317.175781 125.195312 317.460938 125.195312 C 317.507812 125.195312 317.65625 125.136719 317.792969 125.0625 Z M 304.652344 138.933594 C 304.652344 138.914062 304.710938 138.878906 304.78125 138.851562 C 304.855469 138.824219 304.886719 138.835938 304.859375 138.882812 C 304.808594 138.960938 304.652344 139 304.652344 138.933594 Z M 305.6875 138.300781 C 305.71875 138.257812 305.785156 138.21875 305.839844 138.21875 C 305.898438 138.222656 305.886719 138.253906 305.8125 138.300781 C 305.652344 138.40625 305.625 138.40625 305.6875 138.300781 Z M 306.558594 137.765625 C 306.558594 137.746094 306.644531 137.6875 306.746094 137.636719 C 306.925781 137.550781 306.925781 137.550781 306.769531 137.675781 C 306.601562 137.8125 306.558594 137.828125 306.558594 137.765625 Z M 294.898438 137.050781 C 293.519531 136.535156 293.589844 136.621094 293.660156 135.617188 C 293.8125 133.359375 294.652344 128.863281 294.976562 128.546875 C 295.050781 128.476562 295.277344 128.53125 295.882812 128.761719 C 296.328125 128.929688 296.726562 129.101562 296.769531 129.144531 C 296.816406 129.191406 296.742188 129.523438 296.570312 130.011719 C 296.097656 131.367188 296.011719 132.128906 296.019531 134.921875 C 296.027344 136.953125 296.007812 137.390625 295.914062 137.390625 C 295.855469 137.390625 295.398438 137.238281 294.898438 137.050781 Z M 291.800781 135.894531 C 291.015625 135.625 291.027344 135.640625 291.09375 134.863281 C 291.210938 133.464844 292.042969 129.621094 292.46875 128.519531 C 292.828125 127.585938 292.847656 127.574219 293.476562 127.820312 C 293.757812 127.929688 294.023438 128.054688 294.0625 128.09375 C 294.101562 128.132812 293.980469 128.773438 293.796875 129.523438 C 293.320312 131.464844 292.796875 134.773438 292.796875 135.84375 C 292.796875 136.148438 292.785156 136.164062 292.566406 136.121094 C 292.441406 136.097656 292.097656 135.992188 291.800781 135.894531 Z M 309.460938 135.949219 C 309.460938 135.929688 309.519531 135.894531 309.589844 135.867188 C 309.664062 135.835938 309.695312 135.851562 309.667969 135.898438 C 309.621094 135.976562 309.460938 136.015625 309.460938 135.949219 Z M 289.644531 135.082031 L 289.355469 134.941406 L 289.367188 133.59375 C 289.382812 132.132812 289.449219 131.585938 289.820312 130.011719 C 290.253906 128.15625 290.746094 126.941406 291.0625 126.941406 C 291.230469 126.941406 291.882812 127.179688 291.996094 127.28125 C 292.035156 127.316406 291.933594 127.660156 291.769531 128.042969 C 291.605469 128.429688 291.355469 129.199219 291.21875 129.757812 C 290.875 131.148438 290.335938 133.90625 290.265625 134.632812 C 290.203125 135.304688 290.15625 135.335938 289.644531 135.082031 Z M 311.367188 134.78125 C 311.367188 134.761719 311.453125 134.703125 311.554688 134.652344 C 311.734375 134.566406 311.734375 134.566406 311.582031 134.691406 C 311.410156 134.828125 311.367188 134.84375 311.367188 134.78125 Z M 287.40625 134.234375 C 286.925781 134.050781 285.546875 133.523438 284.339844 133.066406 C 283.128906 132.609375 280.351562 131.550781 278.160156 130.714844 C 275.972656 129.882812 273.324219 128.875 272.273438 128.476562 C 267.117188 126.519531 266.070312 126.117188 266.03125 126.078125 C 265.902344 125.949219 265.753906 124.636719 265.710938 123.25 C 265.667969 121.957031 265.683594 121.542969 265.800781 120.96875 C 266.058594 119.660156 266.625 118.238281 266.890625 118.238281 C 267.050781 118.238281 267.644531 118.539062 267.714844 118.65625 C 267.746094 118.707031 267.488281 119.035156 267.140625 119.394531 C 266.507812 120.046875 266.421875 120.234375 266.597656 120.5625 C 266.738281 120.828125 266.96875 120.894531 268.191406 121.015625 C 268.839844 121.082031 269.726562 121.175781 270.160156 121.222656 C 270.59375 121.269531 272.105469 121.417969 273.515625 121.554688 C 276.28125 121.816406 277.550781 121.945312 278.078125 122.015625 C 278.261719 122.039062 278.726562 122.183594 279.113281 122.335938 C 279.503906 122.492188 280.0625 122.710938 280.359375 122.824219 C 280.917969 123.042969 287.058594 125.375 288.929688 126.078125 C 289.515625 126.300781 290.015625 126.53125 290.039062 126.59375 C 290.0625 126.652344 289.945312 126.992188 289.785156 127.339844 C 289.128906 128.742188 288.578125 131.308594 288.507812 133.265625 C 288.476562 134.132812 288.429688 134.570312 288.367188 134.570312 C 288.316406 134.570312 287.882812 134.417969 287.40625 134.234375 Z M 312.285156 134.203125 C 312.390625 134.097656 315.425781 132.191406 319.578125 129.613281 C 326.445312 125.351562 326.496094 125.320312 326.644531 125.03125 C 326.726562 124.875 326.828125 124.75 326.875 124.753906 C 326.917969 124.757812 327.050781 124.769531 327.164062 124.773438 C 327.277344 124.78125 327.371094 124.824219 327.371094 124.867188 C 327.371094 124.960938 327.34375 124.976562 325.339844 126.21875 C 324.5625 126.695312 322.230469 128.144531 320.15625 129.433594 C 318.082031 130.722656 315.582031 132.261719 314.601562 132.855469 C 313.621094 133.445312 312.6875 134.019531 312.53125 134.128906 C 312.203125 134.347656 312.105469 134.378906 312.285156 134.203125 Z M 300.695312 129.628906 C 298.527344 128.804688 297.097656 128.265625 292.917969 126.695312 C 290.832031 125.910156 286.734375 124.359375 286.039062 124.085938 C 285.765625 123.980469 284.726562 123.585938 283.734375 123.207031 C 282.738281 122.832031 281.957031 122.492188 281.992188 122.457031 C 282.027344 122.421875 282.355469 122.425781 282.722656 122.46875 C 283.085938 122.511719 284.578125 122.65625 286.039062 122.796875 C 287.496094 122.9375 289.007812 123.085938 289.394531 123.128906 C 289.785156 123.175781 291.070312 123.304688 292.257812 123.417969 C 293.441406 123.53125 294.746094 123.660156 295.160156 123.707031 C 295.570312 123.75 296.519531 123.847656 297.273438 123.917969 C 298.023438 123.988281 298.976562 124.082031 299.386719 124.125 C 299.796875 124.164062 300.785156 124.261719 301.585938 124.335938 C 302.382812 124.410156 303.660156 124.535156 304.421875 124.613281 C 305.183594 124.6875 305.878906 124.726562 305.964844 124.691406 C 306.101562 124.640625 308.675781 121.144531 313.34375 114.675781 C 314.105469 113.621094 314.410156 113.261719 314.539062 113.261719 C 314.695312 113.261719 320.5 115.011719 322.230469 115.582031 C 322.617188 115.707031 323.269531 115.914062 323.679688 116.039062 C 324.089844 116.164062 324.726562 116.355469 325.089844 116.46875 C 325.457031 116.582031 325.847656 116.703125 325.960938 116.738281 C 326.074219 116.769531 326.167969 116.839844 326.167969 116.894531 C 326.167969 116.945312 325.011719 117.664062 323.597656 118.488281 C 320.761719 120.148438 311.742188 125.40625 306.640625 128.375 C 304.839844 129.421875 303.292969 130.332031 303.203125 130.394531 C 303.113281 130.457031 303.03125 130.507812 303.015625 130.507812 C 303.003906 130.507812 301.960938 130.113281 300.695312 129.628906 Z M 264.464844 125.484375 C 264.207031 125.324219 264.15625 124.835938 264.222656 123.21875 C 264.28125 121.734375 264.417969 120.613281 264.683594 119.398438 C 264.859375 118.582031 265.277344 117.574219 265.433594 117.574219 C 265.484375 117.574219 265.632812 117.628906 265.765625 117.699219 L 266.003906 117.820312 L 265.722656 118.429688 C 265.324219 119.292969 265.03125 120.359375 264.875 121.507812 C 264.742188 122.488281 264.773438 123.492188 264.992188 125.316406 C 265.042969 125.710938 265.039062 125.714844 264.84375 125.660156 C 264.734375 125.625 264.5625 125.546875 264.464844 125.484375 Z M 262.636719 124.816406 C 262.328125 124.695312 262.015625 124.542969 261.941406 124.480469 C 261.722656 124.292969 261.394531 123.476562 261.234375 122.714844 C 261.054688 121.863281 261.023438 119.003906 261.1875 118.195312 C 261.289062 117.691406 261.65625 116.867188 261.941406 116.5 L 262.097656 116.300781 L 263.289062 116.753906 C 264.117188 117.066406 264.476562 117.242188 264.464844 117.328125 C 264.457031 117.394531 264.355469 117.671875 264.242188 117.949219 C 263.773438 119.066406 263.449219 121.113281 263.386719 123.355469 C 263.359375 124.28125 263.304688 125.035156 263.265625 125.035156 C 263.226562 125.035156 262.945312 124.9375 262.636719 124.816406 Z M 302.664062 123.582031 C 301.5 123.46875 300.027344 123.320312 299.386719 123.253906 C 297.726562 123.082031 296.027344 122.910156 294.453125 122.757812 C 293.703125 122.6875 292.75 122.589844 292.339844 122.546875 C 291.929688 122.5 290.4375 122.351562 289.023438 122.214844 C 287.609375 122.082031 286.117188 121.933594 285.707031 121.890625 C 284.824219 121.792969 283.710938 121.683594 281.890625 121.511719 C 281.164062 121.441406 280.230469 121.347656 279.820312 121.300781 C 279.410156 121.253906 277.917969 121.109375 276.503906 120.972656 C 275.089844 120.839844 273.765625 120.707031 273.558594 120.683594 C 273.132812 120.636719 270.488281 120.371094 268.855469 120.21875 C 268.175781 120.152344 267.753906 120.078125 267.753906 120.019531 C 267.753906 119.914062 268.386719 119.292969 268.613281 119.171875 C 268.707031 119.125 268.914062 119.117188 269.132812 119.160156 C 269.332031 119.195312 270.269531 119.300781 271.21875 119.394531 C 273.609375 119.628906 274.558594 119.722656 275.425781 119.816406 C 275.835938 119.863281 277.328125 120.007812 278.742188 120.144531 C 280.15625 120.277344 281.648438 120.425781 282.058594 120.472656 C 282.46875 120.519531 283.417969 120.613281 284.171875 120.6875 C 284.925781 120.757812 286.082031 120.871094 286.742188 120.941406 C 288.039062 121.074219 289.339844 121.199219 292.132812 121.46875 C 294.289062 121.675781 301.816406 122.417969 303.804688 122.621094 C 305.148438 122.757812 305.257812 122.757812 305.550781 122.628906 C 305.789062 122.519531 306.160156 122.105469 307.179688 120.796875 C 313.394531 112.839844 314.765625 111.089844 314.914062 110.941406 C 315.097656 110.757812 314.3125 111.894531 312.984375 113.722656 C 309.445312 118.605469 305.847656 123.527344 305.699219 123.695312 C 305.550781 123.859375 305.472656 123.878906 305.152344 123.839844 C 304.945312 123.8125 303.824219 123.699219 302.664062 123.582031 Z M 302.421875 121.636719 C 300.9375 121.484375 298.648438 121.253906 289.230469 120.3125 C 287.429688 120.132812 285.207031 119.910156 284.296875 119.816406 C 283.382812 119.722656 280.734375 119.460938 278.410156 119.230469 C 273.835938 118.777344 271.261719 118.523438 270.175781 118.410156 C 269.796875 118.371094 269.460938 118.3125 269.429688 118.28125 C 269.398438 118.25 269.367188 117.378906 269.363281 116.34375 C 269.355469 115.308594 269.308594 114.183594 269.253906 113.84375 C 269.199219 113.5 269.132812 112.832031 269.105469 112.359375 L 269.058594 111.496094 L 269.753906 111.546875 C 270.136719 111.574219 271.234375 111.675781 272.191406 111.769531 C 273.148438 111.859375 274.902344 112.027344 276.089844 112.140625 C 277.273438 112.253906 279.027344 112.421875 279.984375 112.511719 C 283.039062 112.808594 285.121094 113.003906 288.734375 113.34375 C 290.671875 113.523438 293.226562 113.769531 294.414062 113.882812 C 295.597656 114 297.539062 114.183594 298.722656 114.296875 C 303.0625 114.703125 304.445312 114.839844 304.546875 114.875 C 304.625 114.90625 304.644531 115.699219 304.628906 118.359375 L 304.609375 121.800781 L 304.328125 121.800781 C 304.171875 121.800781 303.3125 121.726562 302.421875 121.636719 Z M 296.59375 120.558594 C 296.472656 120.523438 296.136719 120.46875 295.847656 120.4375 C 295.558594 120.40625 294 120.21875 292.378906 120.015625 C 283.136719 118.871094 279.757812 118.503906 280.484375 118.730469 C 281.246094 118.96875 290.285156 120.128906 294.40625 120.515625 C 295.84375 120.652344 296.976562 120.675781 296.59375 120.558594 Z M 301.046875 118.082031 C 301.414062 117.988281 300.335938 117.917969 297.5625 117.859375 C 296.285156 117.835938 293.65625 117.761719 291.722656 117.695312 C 289.789062 117.628906 288.1875 117.59375 288.164062 117.617188 C 288.140625 117.636719 288.140625 117.671875 288.164062 117.695312 C 288.214844 117.746094 289.800781 117.886719 291.511719 117.992188 C 293.253906 118.101562 300.707031 118.167969 301.046875 118.082031 Z M 299.460938 116.035156 C 300.046875 115.972656 300.625 115.886719 300.746094 115.84375 C 301.042969 115.734375 300.332031 115.730469 297.398438 115.832031 C 294.832031 115.917969 294.039062 115.980469 294.039062 116.089844 C 294.039062 116.203125 298.253906 116.160156 299.460938 116.035156 Z M 281.476562 114.679688 C 281.632812 114.613281 281.632812 114.605469 281.4375 114.5625 C 281.320312 114.535156 280.761719 114.496094 280.191406 114.46875 C 279.621094 114.441406 278.277344 114.367188 277.207031 114.296875 C 274.042969 114.097656 273.421875 114.074219 273.558594 114.160156 C 273.714844 114.257812 275.332031 114.476562 276.710938 114.585938 C 278.242188 114.703125 281.285156 114.765625 281.476562 114.679688 Z M 305.480469 117.894531 L 305.480469 114.492188 L 307.289062 112.28125 C 308.285156 111.066406 309.765625 109.246094 310.585938 108.238281 C 311.402344 107.230469 312.851562 105.449219 313.800781 104.277344 C 314.75 103.109375 315.539062 102.152344 315.558594 102.152344 C 315.640625 102.152344 315.835938 102.664062 316.019531 103.355469 C 316.195312 104.015625 316.21875 104.277344 316.21875 105.675781 C 316.21875 108 316.382812 107.667969 313.480469 111.316406 C 312.933594 112 310.941406 114.546875 309.050781 116.96875 C 307.160156 119.394531 305.585938 121.359375 305.546875 121.335938 C 305.511719 121.3125 305.480469 119.765625 305.480469 117.894531 Z M 307.664062 115.328125 C 308.429688 114.539062 309.097656 113.59375 308.894531 113.59375 C 308.808594 113.59375 307.542969 115 307.007812 115.6875 C 306.445312 116.410156 306.804688 116.214844 307.664062 115.328125 Z M 313.71875 110.339844 C 314.824219 109.105469 315.757812 107.789062 315.527344 107.789062 C 315.382812 107.789062 313.027344 110.703125 313.027344 110.878906 C 313.027344 111.042969 313.226562 110.886719 313.71875 110.339844 Z M 314.292969 106.90625 C 314.964844 106.238281 315.578125 105.421875 315.484375 105.328125 C 315.410156 105.253906 314.886719 105.765625 314.199219 106.585938 C 313.390625 107.550781 313.398438 107.539062 313.539062 107.539062 C 313.605469 107.539062 313.945312 107.253906 314.292969 106.90625 Z M 267.980469 117.8125 C 267.789062 117.714844 267.539062 117.570312 267.421875 117.488281 C 267.308594 117.410156 266.359375 117.019531 265.308594 116.621094 C 264.261719 116.222656 263.367188 115.867188 263.328125 115.828125 C 263.230469 115.738281 263.230469 115.738281 266.042969 114.785156 C 267.316406 114.351562 268.378906 114.023438 268.40625 114.050781 C 268.507812 114.152344 268.519531 117.988281 268.421875 117.988281 C 268.371094 117.988281 268.171875 117.910156 267.980469 117.8125 Z M 302.859375 113.84375 C 301.953125 113.753906 299.8125 113.546875 298.101562 113.382812 C 296.390625 113.222656 294.023438 112.996094 292.835938 112.882812 C 291.652344 112.769531 289.972656 112.605469 289.105469 112.515625 C 288.238281 112.425781 286.726562 112.277344 285.746094 112.1875 C 284.765625 112.09375 282.996094 111.925781 281.808594 111.808594 C 280.625 111.695312 278.871094 111.527344 277.910156 111.4375 C 276.953125 111.347656 275.386719 111.195312 274.429688 111.105469 C 273.472656 111.011719 271.71875 110.84375 270.53125 110.730469 C 266.535156 110.355469 266.699219 110.378906 266.929688 110.160156 C 266.996094 110.097656 268.617188 108.75 270.53125 107.167969 C 272.449219 105.582031 274.257812 104.074219 274.554688 103.816406 C 275.015625 103.414062 280.660156 98.726562 281.027344 98.445312 C 281.128906 98.363281 281.511719 98.375 282.851562 98.507812 C 283.78125 98.597656 285.515625 98.761719 286.699219 98.875 C 287.886719 98.988281 289.640625 99.15625 290.597656 99.246094 C 291.554688 99.339844 293.121094 99.488281 294.082031 99.582031 C 295.039062 99.671875 296.605469 99.824219 297.5625 99.914062 C 299.914062 100.140625 303.234375 100.457031 305.398438 100.65625 C 306.378906 100.75 307.945312 100.894531 308.878906 100.984375 C 309.816406 101.074219 311.4375 101.226562 312.488281 101.324219 C 314.625 101.515625 314.769531 101.539062 314.769531 101.660156 C 314.769531 101.707031 314.0625 102.609375 313.199219 103.667969 C 304.5 114.332031 304.765625 114.007812 304.617188 114.007812 C 304.558594 114.007812 303.765625 113.933594 302.859375 113.84375 Z M 302.859375 113.84375 " fill-opacity="1" fill-rule="nonzero"/></g><g fill="#ffffff" fill-opacity="1"><g transform="translate(22.60982, 289.953304)"><g><path d="M 16.53125 0.53125 C 7.15625 0.53125 2.46875 -4.609375 2.46875 -14.890625 C 2.46875 -20.003906 3.742188 -23.910156 6.296875 -26.609375 C 8.847656 -29.304688 12.5 -30.65625 17.25 -30.65625 C 20.726562 -30.65625 23.851562 -29.972656 26.625 -28.609375 L 24.203125 -22.265625 C 22.910156 -22.785156 21.707031 -23.207031 20.59375 -23.53125 C 19.476562 -23.863281 18.363281 -24.03125 17.25 -24.03125 C 12.976562 -24.03125 10.84375 -21 10.84375 -14.9375 C 10.84375 -9.050781 12.976562 -6.109375 17.25 -6.109375 C 18.832031 -6.109375 20.296875 -6.316406 21.640625 -6.734375 C 22.984375 -7.160156 24.328125 -7.820312 25.671875 -8.71875 L 25.671875 -1.703125 C 24.347656 -0.859375 23.007812 -0.273438 21.65625 0.046875 C 20.300781 0.367188 18.59375 0.53125 16.53125 0.53125 Z M 16.53125 0.53125 "/></g></g></g><g fill="#ffffff" fill-opacity="1"><g transform="translate(50.949342, 289.953304)"><g><path d="M 23.421875 0 L 21.828125 -4.09375 L 21.609375 -4.09375 C 20.234375 -2.351562 18.8125 -1.144531 17.34375 -0.46875 C 15.882812 0.195312 13.976562 0.53125 11.625 0.53125 C 8.738281 0.53125 6.460938 -0.289062 4.796875 -1.9375 C 3.140625 -3.59375 2.3125 -5.941406 2.3125 -8.984375 C 2.3125 -12.179688 3.425781 -14.535156 5.65625 -16.046875 C 7.894531 -17.566406 11.265625 -18.410156 15.765625 -18.578125 L 21 -18.734375 L 21 -20.046875 C 21 -23.097656 19.4375 -24.625 16.3125 -24.625 C 13.90625 -24.625 11.078125 -23.898438 7.828125 -22.453125 L 5.109375 -28 C 8.578125 -29.8125 12.421875 -30.71875 16.640625 -30.71875 C 20.671875 -30.71875 23.765625 -29.835938 25.921875 -28.078125 C 28.078125 -26.316406 29.15625 -23.640625 29.15625 -20.046875 L 29.15625 0 Z M 21 -13.9375 L 17.8125 -13.828125 C 15.425781 -13.765625 13.648438 -13.335938 12.484375 -12.546875 C 11.316406 -11.753906 10.734375 -10.550781 10.734375 -8.9375 C 10.734375 -6.625 12.0625 -5.46875 14.71875 -5.46875 C 16.625 -5.46875 18.144531 -6.015625 19.28125 -7.109375 C 20.425781 -8.203125 21 -9.65625 21 -11.46875 Z M 21 -13.9375 "/></g></g></g><g fill="#ffffff" fill-opacity="1"><g transform="translate(84.240879, 289.953304)"><g><path d="M 31.25 0 L 23.046875 0 L 23.046875 -17.578125 C 23.046875 -19.742188 22.679688 -21.367188 21.953125 -22.453125 C 21.222656 -23.546875 20.078125 -24.09375 18.515625 -24.09375 C 16.421875 -24.09375 14.894531 -23.316406 13.9375 -21.765625 C 12.988281 -20.222656 12.515625 -17.6875 12.515625 -14.15625 L 12.515625 0 L 4.3125 0 L 4.3125 -30.09375 L 10.578125 -30.09375 L 11.6875 -26.25 L 12.140625 -26.25 C 12.941406 -27.625 14.101562 -28.703125 15.625 -29.484375 C 17.15625 -30.265625 18.910156 -30.65625 20.890625 -30.65625 C 25.390625 -30.65625 28.4375 -29.1875 30.03125 -26.25 L 30.765625 -26.25 C 31.578125 -27.644531 32.765625 -28.726562 34.328125 -29.5 C 35.898438 -30.269531 37.671875 -30.65625 39.640625 -30.65625 C 43.054688 -30.65625 45.640625 -29.78125 47.390625 -28.03125 C 49.140625 -26.28125 50.015625 -23.476562 50.015625 -19.625 L 50.015625 0 L 41.78125 0 L 41.78125 -17.578125 C 41.78125 -19.742188 41.414062 -21.367188 40.6875 -22.453125 C 39.957031 -23.546875 38.8125 -24.09375 37.25 -24.09375 C 35.238281 -24.09375 33.734375 -23.375 32.734375 -21.9375 C 31.742188 -20.5 31.25 -18.21875 31.25 -15.09375 Z M 31.25 0 "/></g></g></g><g fill="#ffffff" fill-opacity="1"><g transform="translate(138.363176, 289.953304)"><g><path d="M 20.828125 0.53125 C 17.296875 0.53125 14.523438 -0.75 12.515625 -3.3125 L 12.078125 -3.3125 C 12.367188 -0.800781 12.515625 0.648438 12.515625 1.046875 L 12.515625 13.25 L 4.3125 13.25 L 4.3125 -30.09375 L 10.984375 -30.09375 L 12.140625 -26.1875 L 12.515625 -26.1875 C 14.429688 -29.164062 17.273438 -30.65625 21.046875 -30.65625 C 24.597656 -30.65625 27.378906 -29.28125 29.390625 -26.53125 C 31.398438 -23.789062 32.40625 -19.976562 32.40625 -15.09375 C 32.40625 -11.882812 31.929688 -9.09375 30.984375 -6.71875 C 30.046875 -4.351562 28.707031 -2.550781 26.96875 -1.3125 C 25.226562 -0.0820312 23.179688 0.53125 20.828125 0.53125 Z M 18.40625 -24.09375 C 16.382812 -24.09375 14.90625 -23.46875 13.96875 -22.21875 C 13.03125 -20.96875 12.546875 -18.910156 12.515625 -16.046875 L 12.515625 -15.15625 C 12.515625 -11.925781 12.992188 -9.609375 13.953125 -8.203125 C 14.910156 -6.804688 16.429688 -6.109375 18.515625 -6.109375 C 22.191406 -6.109375 24.03125 -9.140625 24.03125 -15.203125 C 24.03125 -18.171875 23.578125 -20.394531 22.671875 -21.875 C 21.765625 -23.351562 20.34375 -24.09375 18.40625 -24.09375 Z M 18.40625 -24.09375 "/></g></g></g><g fill="#ffffff" fill-opacity="1"><g transform="translate(173.242587, 289.953304)"><g><path d="M 25.625 0 L 24.515625 -3.84375 L 24.09375 -3.84375 C 23.207031 -2.445312 21.957031 -1.367188 20.34375 -0.609375 C 18.726562 0.148438 16.890625 0.53125 14.828125 0.53125 C 11.296875 0.53125 8.628906 -0.410156 6.828125 -2.296875 C 5.035156 -4.191406 4.140625 -6.914062 4.140625 -10.46875 L 4.140625 -30.09375 L 12.359375 -30.09375 L 12.359375 -12.515625 C 12.359375 -10.347656 12.742188 -8.71875 13.515625 -7.625 C 14.285156 -6.539062 15.515625 -6 17.203125 -6 C 19.492188 -6 21.148438 -6.765625 22.171875 -8.296875 C 23.203125 -9.835938 23.71875 -12.382812 23.71875 -15.9375 L 23.71875 -30.09375 L 31.921875 -30.09375 L 31.921875 0 Z M 25.625 0 "/></g></g></g><g fill="#ffffff" fill-opacity="1"><g transform="translate(209.467655, 289.953304)"><g><path d="M 25.296875 -8.9375 C 25.296875 -5.851562 24.222656 -3.503906 22.078125 -1.890625 C 19.941406 -0.273438 16.738281 0.53125 12.46875 0.53125 C 10.269531 0.53125 8.398438 0.382812 6.859375 0.09375 C 5.316406 -0.195312 3.875 -0.632812 2.53125 -1.21875 L 2.53125 -8 C 4.050781 -7.28125 5.765625 -6.675781 7.671875 -6.1875 C 9.585938 -5.707031 11.273438 -5.46875 12.734375 -5.46875 C 15.710938 -5.46875 17.203125 -6.328125 17.203125 -8.046875 C 17.203125 -8.691406 17.003906 -9.21875 16.609375 -9.625 C 16.210938 -10.03125 15.53125 -10.488281 14.5625 -11 C 13.59375 -11.507812 12.300781 -12.101562 10.6875 -12.78125 C 8.375 -13.75 6.671875 -14.644531 5.578125 -15.46875 C 4.492188 -16.300781 3.703125 -17.25 3.203125 -18.3125 C 2.710938 -19.382812 2.46875 -20.703125 2.46875 -22.265625 C 2.46875 -24.929688 3.503906 -26.992188 5.578125 -28.453125 C 7.648438 -29.921875 10.59375 -30.65625 14.40625 -30.65625 C 18.03125 -30.65625 21.554688 -29.867188 24.984375 -28.296875 L 22.5 -22.375 C 20.988281 -23.019531 19.578125 -23.546875 18.265625 -23.953125 C 16.960938 -24.367188 15.628906 -24.578125 14.265625 -24.578125 C 11.835938 -24.578125 10.625 -23.921875 10.625 -22.609375 C 10.625 -21.867188 11.015625 -21.226562 11.796875 -20.6875 C 12.578125 -20.15625 14.289062 -19.359375 16.9375 -18.296875 C 19.28125 -17.347656 21 -16.460938 22.09375 -15.640625 C 23.1875 -14.816406 23.992188 -13.863281 24.515625 -12.78125 C 25.035156 -11.707031 25.296875 -10.425781 25.296875 -8.9375 Z M 25.296875 -8.9375 "/></g></g></g><g fill="#f0b520" fill-opacity="1"><g transform="translate(236.873064, 289.953304)"><g><path d="M 16.53125 0.53125 C 7.15625 0.53125 2.46875 -4.609375 2.46875 -14.890625 C 2.46875 -20.003906 3.742188 -23.910156 6.296875 -26.609375 C 8.847656 -29.304688 12.5 -30.65625 17.25 -30.65625 C 20.726562 -30.65625 23.851562 -29.972656 26.625 -28.609375 L 24.203125 -22.265625 C 22.910156 -22.785156 21.707031 -23.207031 20.59375 -23.53125 C 19.476562 -23.863281 18.363281 -24.03125 17.25 -24.03125 C 12.976562 -24.03125 10.84375 -21 10.84375 -14.9375 C 10.84375 -9.050781 12.976562 -6.109375 17.25 -6.109375 C 18.832031 -6.109375 20.296875 -6.316406 21.640625 -6.734375 C 22.984375 -7.160156 24.328125 -7.820312 25.671875 -8.71875 L 25.671875 -1.703125 C 24.347656 -0.859375 23.007812 -0.273438 21.65625 0.046875 C 20.300781 0.367188 18.59375 0.53125 16.53125 0.53125 Z M 16.53125 0.53125 "/></g></g></g><g fill="#f0b520" fill-opacity="1"><g transform="translate(265.212586, 289.953304)"><g><path d="M 10.84375 -15.09375 C 10.84375 -12.113281 11.332031 -9.863281 12.3125 -8.34375 C 13.289062 -6.820312 14.882812 -6.0625 17.09375 -6.0625 C 19.28125 -6.0625 20.851562 -6.816406 21.8125 -8.328125 C 22.769531 -9.847656 23.25 -12.101562 23.25 -15.09375 C 23.25 -18.070312 22.765625 -20.304688 21.796875 -21.796875 C 20.828125 -23.285156 19.238281 -24.03125 17.03125 -24.03125 C 14.84375 -24.03125 13.265625 -23.289062 12.296875 -21.8125 C 11.328125 -20.332031 10.84375 -18.09375 10.84375 -15.09375 Z M 31.65625 -15.09375 C 31.65625 -10.195312 30.363281 -6.367188 27.78125 -3.609375 C 25.195312 -0.847656 21.597656 0.53125 16.984375 0.53125 C 14.097656 0.53125 11.550781 -0.0976562 9.34375 -1.359375 C 7.132812 -2.617188 5.4375 -4.429688 4.25 -6.796875 C 3.0625 -9.171875 2.46875 -11.9375 2.46875 -15.09375 C 2.46875 -20.007812 3.75 -23.832031 6.3125 -26.5625 C 8.882812 -29.289062 12.492188 -30.65625 17.140625 -30.65625 C 20.035156 -30.65625 22.582031 -30.023438 24.78125 -28.765625 C 26.988281 -27.515625 28.6875 -25.710938 29.875 -23.359375 C 31.0625 -21.015625 31.65625 -18.257812 31.65625 -15.09375 Z M 31.65625 -15.09375 "/></g></g></g><g fill="#f0b520" fill-opacity="1"><g transform="translate(299.33843, 289.953304)"><g><path d="M 3.953125 -37.875 C 3.953125 -40.539062 5.441406 -41.875 8.421875 -41.875 C 11.398438 -41.875 12.890625 -40.539062 12.890625 -37.875 C 12.890625 -36.59375 12.515625 -35.597656 11.765625 -34.890625 C 11.023438 -34.179688 9.910156 -33.828125 8.421875 -33.828125 C 5.441406 -33.828125 3.953125 -35.175781 3.953125 -37.875 Z M 12.515625 0 L 4.3125 0 L 4.3125 -30.09375 L 12.515625 -30.09375 Z M 12.515625 0 "/></g></g></g><g fill="#f0b520" fill-opacity="1"><g transform="translate(316.159133, 289.953304)"><g><path d="M 32.078125 0 L 23.875 0 L 23.875 -17.578125 C 23.875 -19.742188 23.488281 -21.367188 22.71875 -22.453125 C 21.945312 -23.546875 20.71875 -24.09375 19.03125 -24.09375 C 16.726562 -24.09375 15.066406 -23.320312 14.046875 -21.78125 C 13.023438 -20.25 12.515625 -17.707031 12.515625 -14.15625 L 12.515625 0 L 4.3125 0 L 4.3125 -30.09375 L 10.578125 -30.09375 L 11.6875 -26.25 L 12.140625 -26.25 C 13.054688 -27.695312 14.316406 -28.789062 15.921875 -29.53125 C 17.523438 -30.28125 19.351562 -30.65625 21.40625 -30.65625 C 24.894531 -30.65625 27.546875 -29.707031 29.359375 -27.8125 C 31.171875 -25.925781 32.078125 -23.195312 32.078125 -19.625 Z M 32.078125 0 "/></g></g></g></svg>